<svg xmlns="http://www.w3.org/2000/svg" width="640" height="370" viewBox="0 0 640 370" font-family="Helvetica, Arial, sans-serif" font-size="12" role="img" aria-labelledby="t d" data-visual-id="V002" data-representation="dot_ci" data-domain-lo="0" data-domain-hi="1" data-plot-left="159" data-plot-right="616" data-min-font="12">
<title id="t">Exact match vs token-F1 by system (mean, 95% CI)</title>
<desc id="d">Paired dot plot of exact match and token-F1 for four systems; ASMOS+RAG is high on exact match but low on token-F1.</desc>
<metadata>{&quot;domain&quot;: [0, 1.0], &quot;representation&quot;: &quot;dot_ci&quot;, &quot;source_file&quot;: &quot;data/aggregates.json&quot;, &quot;visual_id&quot;: &quot;V002&quot;}</metadata>
<rect width="640" height="370" fill="#ffffff"/>
<text x="159" y="22" font-size="13" font-weight="bold">Exact match vs token-F1 by system (mean, 95% CI)</text>
<line x1="159.00" y1="40" x2="159.00" y2="264" stroke="#dddddd"/>
<text class="tick" data-axis="x" data-pos="159.00" x="159.00" y="280" text-anchor="middle">0.00</text>
<line x1="273.25" y1="40" x2="273.25" y2="264" stroke="#dddddd"/>
<text class="tick" data-axis="x" data-pos="273.25" x="273.25" y="280" text-anchor="middle">0.25</text>
<line x1="387.50" y1="40" x2="387.50" y2="264" stroke="#dddddd"/>
<text class="tick" data-axis="x" data-pos="387.50" x="387.50" y="280" text-anchor="middle">0.50</text>
<line x1="501.75" y1="40" x2="501.75" y2="264" stroke="#dddddd"/>
<text class="tick" data-axis="x" data-pos="501.75" x="501.75" y="280" text-anchor="middle">0.75</text>
<line x1="616.00" y1="40" x2="616.00" y2="264" stroke="#dddddd"/>
<text class="tick" data-axis="x" data-pos="616.00" x="616.00" y="280" text-anchor="middle">1.00</text>
<line x1="159" y1="264" x2="616" y2="264" stroke="#333333"/>
<text x="387.50" y="300" text-anchor="middle">score</text>
<text class="category" x="149" y="58.00" text-anchor="end">No memory</text>
<g class="mark" data-x="A No-Memory" data-y="0.3333" data-series="exact_match" data-cx="311.32" data-cy="54.00" data-err-low="0.1447" data-err-high="0.5219"><line x1="225.13" y1="54.00" x2="397.51" y2="54.00" stroke="#0072B2" stroke-width="2"/><circle cx="311.32" cy="54.00" r="5.00" fill="#0072B2"/><text x="319.32" y="47.00" font-size="11">0.333</text></g>
<g class="mark" data-x="A No-Memory" data-y="0.5642" data-series="token_f1" data-cx="416.84" data-cy="82.00" data-err-low="0.4224" data-err-high="0.706"><line x1="352.04" y1="82.00" x2="481.64" y2="82.00" stroke="#E69F00" stroke-width="2"/><rect x="411.84" y="77.00" width="10.00" height="10.00" fill="#E69F00"/><text x="424.84" y="75.00" font-size="11">0.564</text></g>
<text class="category" x="149" y="114.00" text-anchor="end">RAG</text>
<g class="mark" data-x="B RAG" data-y="0.7083" data-series="exact_match" data-cx="482.69" data-cy="110.00" data-err-low="0.5265" data-err-high="0.8902"><line x1="399.61" y1="110.00" x2="565.82" y2="110.00" stroke="#0072B2" stroke-width="2"/><circle cx="482.69" cy="110.00" r="5.00" fill="#0072B2"/><text x="490.69" y="103.00" font-size="11">0.708</text></g>
<g class="mark" data-x="B RAG" data-y="0.7513" data-series="token_f1" data-cx="502.34" data-cy="138.00" data-err-low="0.6121" data-err-high="0.8905"><line x1="438.73" y1="138.00" x2="565.96" y2="138.00" stroke="#E69F00" stroke-width="2"/><rect x="497.34" y="133.00" width="10.00" height="10.00" fill="#E69F00"/><text x="510.34" y="131.00" font-size="11">0.751</text></g>
<text class="category" x="149" y="170.00" text-anchor="end">ASMOS (memory only)</text>
<g class="mark" data-x="C ASMOS" data-y="0.1667" data-series="exact_match" data-cx="235.18" data-cy="166.00" data-err-low="0.0176" data-err-high="0.3158"><line x1="167.04" y1="166.00" x2="303.32" y2="166.00" stroke="#0072B2" stroke-width="2"/><circle cx="235.18" cy="166.00" r="5.00" fill="#0072B2"/><text x="243.18" y="159.00" font-size="11">0.167</text></g>
<g class="mark" data-x="C ASMOS" data-y="0.4155" data-series="token_f1" data-cx="348.88" data-cy="194.00" data-err-low="0.2834" data-err-high="0.5476"><line x1="288.51" y1="194.00" x2="409.25" y2="194.00" stroke="#E69F00" stroke-width="2"/><rect x="343.88" y="189.00" width="10.00" height="10.00" fill="#E69F00"/><text x="356.88" y="187.00" font-size="11">0.416</text></g>
<text class="category" x="149" y="226.00" text-anchor="end">ASMOS + RAG</text>
<g class="mark" data-x="D ASMOS+RAG" data-y="0.625" data-series="exact_match" data-cx="444.62" data-cy="222.00" data-err-low="0.4313" data-err-high="0.8187"><line x1="356.10" y1="222.00" x2="533.15" y2="222.00" stroke="#0072B2" stroke-width="2"/><circle cx="444.62" cy="222.00" r="5.00" fill="#0072B2"/><text x="452.62" y="215.00" font-size="11">0.625</text></g>
<g class="mark" data-x="D ASMOS+RAG" data-y="0.4329" data-series="token_f1" data-cx="356.84" data-cy="250.00" data-err-low="0.2698" data-err-high="0.596"><line x1="282.30" y1="250.00" x2="431.37" y2="250.00" stroke="#E69F00" stroke-width="2"/><rect x="351.84" y="245.00" width="10.00" height="10.00" fill="#E69F00"/><text x="364.84" y="243.00" font-size="11">0.433</text></g>
<circle cx="165.00" cy="312.00" r="5.00" fill="#0072B2"/>
<text class="legend" x="175" y="316">exact match</text>
<rect x="160.00" y="325.00" width="10.00" height="10.00" fill="#E69F00"/>
<text class="legend" x="175" y="334">token-F1</text>
</svg>
