<svg xmlns="http://www.w3.org/2000/svg" width="640" height="440" viewBox="0 0 640 440" font-family="Helvetica, Arial, sans-serif" font-size="12" role="img" aria-labelledby="t d" data-visual-id="V003" data-representation="line" data-domain-lo="0" data-domain-hi="1" data-plot-left="40" data-plot-right="616" data-min-font="12">
<title id="t">Route@1 on the new topic by step</title>
<desc id="d">Line plot of route@1 on a new topic over ten steps: ASMOS with two embedders rises gradually from 0.0 or 0.2 to 1.0, a frozen classifier stays at 0.0, and retrained classifiers stay at 0.0 until a retrain.</desc>
<metadata>{&quot;domain&quot;: [0, 1], &quot;representation&quot;: &quot;line&quot;, &quot;source_file&quot;: &quot;.rcs/plan/data/v003_new_topic_route.csv&quot;, &quot;visual_id&quot;: &quot;V003&quot;}</metadata>
<rect width="640" height="440" fill="#ffffff"/>
<text x="40" y="22" font-size="13" font-weight="bold">Route@1 on the new topic by step</text>
<line x1="40.00" y1="40" x2="40.00" y2="280" stroke="#dddddd"/>
<text class="tick" x="40.00" y="296" text-anchor="middle">0.00</text>
<line x1="184.00" y1="40" x2="184.00" y2="280" stroke="#dddddd"/>
<text class="tick" x="184.00" y="296" text-anchor="middle">0.25</text>
<line x1="328.00" y1="40" x2="328.00" y2="280" stroke="#dddddd"/>
<text class="tick" x="328.00" y="296" text-anchor="middle">0.50</text>
<line x1="472.00" y1="40" x2="472.00" y2="280" stroke="#dddddd"/>
<text class="tick" x="472.00" y="296" text-anchor="middle">0.75</text>
<line x1="616.00" y1="40" x2="616.00" y2="280" stroke="#dddddd"/>
<text class="tick" x="616.00" y="296" text-anchor="middle">1.00</text>
<line x1="40" y1="280" x2="616" y2="280" stroke="#333333"/>
<text x="328.00" y="316" text-anchor="middle">Route@1 on the new topic</text>
<path d="M40.00,280.00 L97.60,251.20 L155.20,222.40 L212.80,174.40 L270.40,126.40 L328.00,97.60 L385.60,88.00 L443.20,68.80 L500.80,59.20 L558.40,49.60 L616.00,40.00" fill="none" stroke="#0072B2" stroke-width="2"/>
<g class="mark" data-x="0" data-y="0" data-series="asmos_mpnet"><circle cx="40.00" cy="280.00" r="4.00" fill="#0072B2"/></g>
<g class="mark" data-x="1" data-y="0.12" data-series="asmos_mpnet"><circle cx="97.60" cy="251.20" r="4.00" fill="#0072B2"/></g>
<g class="mark" data-x="2" data-y="0.24" data-series="asmos_mpnet"><circle cx="155.20" cy="222.40" r="4.00" fill="#0072B2"/></g>
<g class="mark" data-x="3" data-y="0.44" data-series="asmos_mpnet"><circle cx="212.80" cy="174.40" r="4.00" fill="#0072B2"/></g>
<g class="mark" data-x="4" data-y="0.64" data-series="asmos_mpnet"><circle cx="270.40" cy="126.40" r="4.00" fill="#0072B2"/></g>
<g class="mark" data-x="5" data-y="0.76" data-series="asmos_mpnet"><circle cx="328.00" cy="97.60" r="4.00" fill="#0072B2"/></g>
<g class="mark" data-x="6" data-y="0.8" data-series="asmos_mpnet"><circle cx="385.60" cy="88.00" r="4.00" fill="#0072B2"/></g>
<g class="mark" data-x="7" data-y="0.88" data-series="asmos_mpnet"><circle cx="443.20" cy="68.80" r="4.00" fill="#0072B2"/></g>
<g class="mark" data-x="8" data-y="0.92" data-series="asmos_mpnet"><circle cx="500.80" cy="59.20" r="4.00" fill="#0072B2"/></g>
<g class="mark" data-x="9" data-y="0.96" data-series="asmos_mpnet"><circle cx="558.40" cy="49.60" r="4.00" fill="#0072B2"/></g>
<g class="mark" data-x="10" data-y="1" data-series="asmos_mpnet"><circle cx="616.00" cy="40.00" r="4.00" fill="#0072B2"/></g>
<path d="M40.00,232.00 L97.60,155.20 L155.20,88.00 L212.80,78.40 L270.40,49.60 L328.00,49.60 L385.60,40.00 L443.20,40.00 L500.80,40.00 L558.40,40.00 L616.00,40.00" fill="none" stroke="#E69F00" stroke-width="2"/>
<g class="mark" data-x="0" data-y="0.2" data-series="asmos_bge_m3"><rect x="36.00" y="228.00" width="8.00" height="8.00" fill="#E69F00"/></g>
<g class="mark" data-x="1" data-y="0.52" data-series="asmos_bge_m3"><rect x="93.60" y="151.20" width="8.00" height="8.00" fill="#E69F00"/></g>
<g class="mark" data-x="2" data-y="0.8" data-series="asmos_bge_m3"><rect x="151.20" y="84.00" width="8.00" height="8.00" fill="#E69F00"/></g>
<g class="mark" data-x="3" data-y="0.84" data-series="asmos_bge_m3"><rect x="208.80" y="74.40" width="8.00" height="8.00" fill="#E69F00"/></g>
<g class="mark" data-x="4" data-y="0.96" data-series="asmos_bge_m3"><rect x="266.40" y="45.60" width="8.00" height="8.00" fill="#E69F00"/></g>
<g class="mark" data-x="5" data-y="0.96" data-series="asmos_bge_m3"><rect x="324.00" y="45.60" width="8.00" height="8.00" fill="#E69F00"/></g>
<g class="mark" data-x="6" data-y="1" data-series="asmos_bge_m3"><rect x="381.60" y="36.00" width="8.00" height="8.00" fill="#E69F00"/></g>
<g class="mark" data-x="7" data-y="1" data-series="asmos_bge_m3"><rect x="439.20" y="36.00" width="8.00" height="8.00" fill="#E69F00"/></g>
<g class="mark" data-x="8" data-y="1" data-series="asmos_bge_m3"><rect x="496.80" y="36.00" width="8.00" height="8.00" fill="#E69F00"/></g>
<g class="mark" data-x="9" data-y="1" data-series="asmos_bge_m3"><rect x="554.40" y="36.00" width="8.00" height="8.00" fill="#E69F00"/></g>
<g class="mark" data-x="10" data-y="1" data-series="asmos_bge_m3"><rect x="612.00" y="36.00" width="8.00" height="8.00" fill="#E69F00"/></g>
<path d="M40.00,280.00 L97.60,280.00 L155.20,280.00 L212.80,280.00 L270.40,280.00 L328.00,280.00 L385.60,280.00 L443.20,280.00 L500.80,280.00 L558.40,280.00 L616.00,280.00" fill="none" stroke="#009E73" stroke-width="2"/>
<g class="mark" data-x="0" data-y="0" data-series="classifier_frozen"><polygon points="40.00,276.00 36.00,284.00 44.00,284.00" fill="#009E73"/></g>
<g class="mark" data-x="1" data-y="0" data-series="classifier_frozen"><polygon points="97.60,276.00 93.60,284.00 101.60,284.00" fill="#009E73"/></g>
<g class="mark" data-x="2" data-y="0" data-series="classifier_frozen"><polygon points="155.20,276.00 151.20,284.00 159.20,284.00" fill="#009E73"/></g>
<g class="mark" data-x="3" data-y="0" data-series="classifier_frozen"><polygon points="212.80,276.00 208.80,284.00 216.80,284.00" fill="#009E73"/></g>
<g class="mark" data-x="4" data-y="0" data-series="classifier_frozen"><polygon points="270.40,276.00 266.40,284.00 274.40,284.00" fill="#009E73"/></g>
<g class="mark" data-x="5" data-y="0" data-series="classifier_frozen"><polygon points="328.00,276.00 324.00,284.00 332.00,284.00" fill="#009E73"/></g>
<g class="mark" data-x="6" data-y="0" data-series="classifier_frozen"><polygon points="385.60,276.00 381.60,284.00 389.60,284.00" fill="#009E73"/></g>
<g class="mark" data-x="7" data-y="0" data-series="classifier_frozen"><polygon points="443.20,276.00 439.20,284.00 447.20,284.00" fill="#009E73"/></g>
<g class="mark" data-x="8" data-y="0" data-series="classifier_frozen"><polygon points="500.80,276.00 496.80,284.00 504.80,284.00" fill="#009E73"/></g>
<g class="mark" data-x="9" data-y="0" data-series="classifier_frozen"><polygon points="558.40,276.00 554.40,284.00 562.40,284.00" fill="#009E73"/></g>
<g class="mark" data-x="10" data-y="0" data-series="classifier_frozen"><polygon points="616.00,276.00 612.00,284.00 620.00,284.00" fill="#009E73"/></g>
<path d="M40.00,280.00 L97.60,280.00 L155.20,280.00 L212.80,280.00 L270.40,280.00 L328.00,78.40 L385.60,78.40 L443.20,78.40 L500.80,78.40 L558.40,78.40 L616.00,40.00" fill="none" stroke="#CC79A7" stroke-width="2"/>
<g class="mark" data-x="0" data-y="0" data-series="classifier_every_5"><polygon points="40.00,276.00 44.00,280.00 40.00,284.00 36.00,280.00" fill="#CC79A7"/></g>
<g class="mark" data-x="1" data-y="0" data-series="classifier_every_5"><polygon points="97.60,276.00 101.60,280.00 97.60,284.00 93.60,280.00" fill="#CC79A7"/></g>
<g class="mark" data-x="2" data-y="0" data-series="classifier_every_5"><polygon points="155.20,276.00 159.20,280.00 155.20,284.00 151.20,280.00" fill="#CC79A7"/></g>
<g class="mark" data-x="3" data-y="0" data-series="classifier_every_5"><polygon points="212.80,276.00 216.80,280.00 212.80,284.00 208.80,280.00" fill="#CC79A7"/></g>
<g class="mark" data-x="4" data-y="0" data-series="classifier_every_5"><polygon points="270.40,276.00 274.40,280.00 270.40,284.00 266.40,280.00" fill="#CC79A7"/></g>
<g class="mark" data-x="5" data-y="0.84" data-series="classifier_every_5"><polygon points="328.00,74.40 332.00,78.40 328.00,82.40 324.00,78.40" fill="#CC79A7"/></g>
<g class="mark" data-x="6" data-y="0.84" data-series="classifier_every_5"><polygon points="385.60,74.40 389.60,78.40 385.60,82.40 381.60,78.40" fill="#CC79A7"/></g>
<g class="mark" data-x="7" data-y="0.84" data-series="classifier_every_5"><polygon points="443.20,74.40 447.20,78.40 443.20,82.40 439.20,78.40" fill="#CC79A7"/></g>
<g class="mark" data-x="8" data-y="0.84" data-series="classifier_every_5"><polygon points="500.80,74.40 504.80,78.40 500.80,82.40 496.80,78.40" fill="#CC79A7"/></g>
<g class="mark" data-x="9" data-y="0.84" data-series="classifier_every_5"><polygon points="558.40,74.40 562.40,78.40 558.40,82.40 554.40,78.40" fill="#CC79A7"/></g>
<g class="mark" data-x="10" data-y="1" data-series="classifier_every_5"><polygon points="616.00,36.00 620.00,40.00 616.00,44.00 612.00,40.00" fill="#CC79A7"/></g>
<path d="M40.00,280.00 L97.60,280.00 L155.20,280.00 L212.80,280.00 L270.40,280.00 L328.00,280.00 L385.60,280.00 L443.20,280.00 L500.80,280.00 L558.40,280.00 L616.00,40.00" fill="none" stroke="#56B4E9" stroke-width="2"/>
<g class="mark" data-x="0" data-y="0" data-series="classifier_every_10"><path d="M36.00,276.00L44.00,284.00M36.00,284.00L44.00,276.00" stroke="#56B4E9" stroke-width="2"/></g>
<g class="mark" data-x="1" data-y="0" data-series="classifier_every_10"><path d="M93.60,276.00L101.60,284.00M93.60,284.00L101.60,276.00" stroke="#56B4E9" stroke-width="2"/></g>
<g class="mark" data-x="2" data-y="0" data-series="classifier_every_10"><path d="M151.20,276.00L159.20,284.00M151.20,284.00L159.20,276.00" stroke="#56B4E9" stroke-width="2"/></g>
<g class="mark" data-x="3" data-y="0" data-series="classifier_every_10"><path d="M208.80,276.00L216.80,284.00M208.80,284.00L216.80,276.00" stroke="#56B4E9" stroke-width="2"/></g>
<g class="mark" data-x="4" data-y="0" data-series="classifier_every_10"><path d="M266.40,276.00L274.40,284.00M266.40,284.00L274.40,276.00" stroke="#56B4E9" stroke-width="2"/></g>
<g class="mark" data-x="5" data-y="0" data-series="classifier_every_10"><path d="M324.00,276.00L332.00,284.00M324.00,284.00L332.00,276.00" stroke="#56B4E9" stroke-width="2"/></g>
<g class="mark" data-x="6" data-y="0" data-series="classifier_every_10"><path d="M381.60,276.00L389.60,284.00M381.60,284.00L389.60,276.00" stroke="#56B4E9" stroke-width="2"/></g>
<g class="mark" data-x="7" data-y="0" data-series="classifier_every_10"><path d="M439.20,276.00L447.20,284.00M439.20,284.00L447.20,276.00" stroke="#56B4E9" stroke-width="2"/></g>
<g class="mark" data-x="8" data-y="0" data-series="classifier_every_10"><path d="M496.80,276.00L504.80,284.00M496.80,284.00L504.80,276.00" stroke="#56B4E9" stroke-width="2"/></g>
<g class="mark" data-x="9" data-y="0" data-series="classifier_every_10"><path d="M554.40,276.00L562.40,284.00M554.40,284.00L562.40,276.00" stroke="#56B4E9" stroke-width="2"/></g>
<g class="mark" data-x="10" data-y="1" data-series="classifier_every_10"><path d="M612.00,36.00L620.00,44.00M612.00,44.00L620.00,36.00" stroke="#56B4E9" stroke-width="2"/></g>
<circle cx="46.00" cy="328.00" r="5.00" fill="#0072B2"/>
<text class="legend" x="56" y="332">ASMOS (all-mpnet-base-v2)</text>
<rect x="41.00" y="341.00" width="10.00" height="10.00" fill="#E69F00"/>
<text class="legend" x="56" y="350">ASMOS (bge-m3)</text>
<polygon points="46.00,359.00 41.00,369.00 51.00,369.00" fill="#009E73"/>
<text class="legend" x="56" y="368">Frozen classifier</text>
<polygon points="46.00,377.00 51.00,382.00 46.00,387.00 41.00,382.00" fill="#CC79A7"/>
<text class="legend" x="56" y="386">Classifier retrained every 5 steps</text>
<path d="M41.00,395.00L51.00,405.00M41.00,405.00L51.00,395.00" stroke="#56B4E9" stroke-width="2"/>
<text class="legend" x="56" y="404">Classifier retrained every 10 steps</text>
</svg>
